<svg width="15" height="17" viewBox="0 0 15 17" fill="none" xmlns="http://www.w3.org/2000/svg">
<path d="M8.64185 3.92639L9.23406 3.68611C9.71566 3.49668 10.3372 3.30478 11.072 3.42676C12.576 3.67646 13.6137 4.47866 14.2317 5.54268C14.4698 5.95272 14.2774 6.49286 13.8318 6.66528C13.0906 6.95199 12.568 7.66432 12.568 8.49521C12.568 9.36554 13.1417 10.1057 13.938 10.3628C14.3503 10.496 14.5819 10.948 14.4465 11.355C14.0954 12.41 13.5891 13.3834 12.99 14.1691C12.3987 14.9448 11.6763 15.5899 10.8721 15.9043C10.3478 16.1093 9.78416 16.0328 9.24522 15.9007L8.92533 15.8166L8.45057 15.6804C8.23504 15.6188 8.01383 15.5653 7.79524 15.5653C7.57665 15.5653 7.35544 15.6188 7.13994 15.6804L6.66523 15.8166L6.34533 15.9007C5.80638 16.0328 5.24277 16.1093 4.71841 15.9043C3.70558 15.5083 2.81222 14.5843 2.13756 13.495C1.45093 12.3863 0.93059 11.0117 0.718442 9.57753C0.537787 8.35614 0.63531 6.98546 1.20747 5.82526C1.79673 4.6304 2.8745 3.69975 4.51853 3.42676C5.18654 3.31584 5.76099 3.46437 6.22174 3.63461L6.48438 3.73747L6.94871 3.92639C7.26666 4.04945 7.51807 4.12192 7.79524 4.12192C8.07248 4.12192 8.3239 4.04945 8.64185 3.92639ZM7.61054 0.848449C8.38714 0.0813484 9.57921 0.0150735 9.8604 0.292871C10.1417 0.57066 10.0745 1.7481 9.29794 2.5152C8.52133 3.2823 7.32927 3.34858 7.04807 3.07079C6.7668 2.793 6.83394 1.61555 7.61054 0.848449Z" fill="black"/>
</svg>
